<svg xmlns="http://www.w3.org/2000/svg" xmlns:xlink="http://www.w3.org/1999/xlink" viewBox="0 0 216.38 216.37"><defs><style>.cls-1{fill:#0d7dc0;}.cls-2{fill:url(#Sfumatura_senza_nome_6);}.cls-3{fill:url(#Sfumatura_senza_nome_8);}.cls-4{fill:url(#Sfumatura_senza_nome_8-2);}.cls-5{fill:url(#Sfumatura_senza_nome_4);}.cls-6{fill:url(#Sfumatura_senza_nome_8-3);}.cls-7{fill:url(#Sfumatura_senza_nome_6-2);}.cls-8{fill:url(#Sfumatura_senza_nome_7);}.cls-9{fill:url(#Sfumatura_senza_nome_8-4);}</style><linearGradient id="Sfumatura_senza_nome_6" x1="123.94" y1="151.07" x2="197.81" y2="224.94" gradientTransform="matrix(1, 0, 0, -1, 0, 309.84)" gradientUnits="userSpaceOnUse"><stop offset="0" stop-color="#05509e"/><stop offset="0.04" stop-color="#085fa9"/><stop offset="0.1" stop-color="#0b70b6"/><stop offset="0.16" stop-color="#0c7abe"/><stop offset="0.24" stop-color="#0d7dc0"/></linearGradient><linearGradient id="Sfumatura_senza_nome_8" x1="83.77" y1="128.21" x2="57.8" y2="101.71" gradientTransform="matrix(1, 0, 0, -1, 0, 309.84)" gradientUnits="userSpaceOnUse"><stop offset="0" stop-color="#05509e"/><stop offset="0.15" stop-color="#085fa9"/><stop offset="0.4" stop-color="#0b70b6"/><stop offset="0.67" stop-color="#0c7abe"/><stop offset="1" stop-color="#0d7dc0"/></linearGradient><linearGradient id="Sfumatura_senza_nome_8-2" x1="34.63" y1="227.36" x2="6.74" y2="252.3" xlink:href="#Sfumatura_senza_nome_8"/><linearGradient id="Sfumatura_senza_nome_4" x1="57.14" y1="186.44" x2="156.06" y2="87.52" gradientTransform="matrix(1, 0, 0, -1, 0, 309.84)" gradientUnits="userSpaceOnUse"><stop offset="0" stop-color="#05509e"/><stop offset="0.03" stop-color="#085fa9"/><stop offset="0.08" stop-color="#0b70b6"/><stop offset="0.13" stop-color="#0c7abe"/><stop offset="0.19" stop-color="#0d7dc0"/></linearGradient><linearGradient id="Sfumatura_senza_nome_8-3" x1="130.63" y1="273.41" x2="161.82" y2="304.6" xlink:href="#Sfumatura_senza_nome_8"/><linearGradient id="Sfumatura_senza_nome_6-2" x1="92.92" y1="252.66" x2="19.05" y2="178.79" xlink:href="#Sfumatura_senza_nome_6"/><linearGradient id="Sfumatura_senza_nome_7" x1="158.99" y1="217.18" x2="60.07" y2="316.1" gradientTransform="matrix(1, 0, 0, -1, 0, 309.84)" gradientUnits="userSpaceOnUse"><stop offset="0" stop-color="#05509e"/><stop offset="0.03" stop-color="#085fa9"/><stop offset="0.07" stop-color="#0b70b6"/><stop offset="0.12" stop-color="#0c7abe"/><stop offset="0.17" stop-color="#0d7dc0"/></linearGradient><linearGradient id="Sfumatura_senza_nome_8-4" x1="181.03" y1="178.15" x2="207.48" y2="151.7" xlink:href="#Sfumatura_senza_nome_8"/></defs><g id="Livello_2" data-name="Livello 2"><g id="Guide"><g id="Livello_2-2" data-name="Livello 2"><path class="cls-1" d="M206.25,47.82,193.4,35l-13,13,3.32,3.32c4.77,4.77,6.42,10,4.9,15.62-1.44,5.27-5,10.64-10.72,16.41l-13.59,13.6a73.71,73.71,0,0,0-12.75,16.34,51.9,51.9,0,0,0-5.49,14.12,27.59,27.59,0,0,0-.15,11.23,26,26,0,0,0,2.55,7.09l3.61,6.4-6.39-3.61a25.75,25.75,0,0,0-7.11-2.56,28,28,0,0,0-11.21.15,51.9,51.9,0,0,0-14.12,5.49c-.44.24-.89.5-1.33.77a92.31,92.31,0,0,1,10.47,9.09L135,174.08a45.56,45.56,0,0,1,6.1-2.16c8.61-2.35,15.66-1.34,21,3l12.76-12.76c-4.33-5.32-5.34-12.37-3-21,2.46-9.06,8.21-18.14,17.06-27l13.85-13.85c9.08-9.08,13.66-18.52,13.58-28.06A33.83,33.83,0,0,0,206.25,47.82Z"/><path class="cls-2" d="M206.25,47.82,193.4,35l-13,13,3.32,3.32c4.77,4.77,6.42,10,4.9,15.62-1.44,5.27-5,10.64-10.72,16.41l-13.59,13.6a73.71,73.71,0,0,0-12.75,16.34,51.9,51.9,0,0,0-5.49,14.12,27.59,27.59,0,0,0-.15,11.23,26,26,0,0,0,2.55,7.09l3.61,6.4-6.39-3.61a25.75,25.75,0,0,0-7.11-2.56,28,28,0,0,0-11.21.15,51.9,51.9,0,0,0-14.12,5.49c-.44.24-.89.5-1.33.77a92.31,92.31,0,0,1,10.47,9.09L135,174.08a45.56,45.56,0,0,1,6.1-2.16c8.61-2.35,15.66-1.34,21,3l12.76-12.76c-4.33-5.32-5.34-12.37-3-21,2.46-9.06,8.21-18.14,17.06-27l13.85-13.85c9.08-9.08,13.66-18.52,13.58-28.06A33.83,33.83,0,0,0,206.25,47.82Z"/><path class="cls-1" d="M99.38,191.83A67.59,67.59,0,0,0,82.2,178.92c-5.34,5.11-10.35,8.29-15.28,9.64-5.59,1.52-10.85-.13-15.63-4.9L48,180.34l-13,13,12.86,12.85a33.79,33.79,0,0,0,24.39,10.14h.22c9.46,0,18.83-4.57,27.84-13.59l5-5Z"/><path class="cls-3" d="M99.38,191.83A67.59,67.59,0,0,0,82.2,178.92c-5.34,5.11-10.35,8.29-15.28,9.64-5.59,1.52-10.85-.13-15.63-4.9L48,180.34l-13,13,12.86,12.85a33.79,33.79,0,0,0,24.39,10.14h.22c9.46,0,18.83-4.57,27.84-13.59l5-5Z"/><path class="cls-1" d="M18.63,105.3l5.94-5.94A68,68,0,0,0,37.44,82.18c-5.12-5.34-8.3-10.35-9.65-15.27-1.52-5.61.13-10.87,4.9-15.63L36,48,23,35,10.13,47.82A33.82,33.82,0,0,0,0,72.21c-.07,9.54,4.5,19,13.58,28.06Z"/><path class="cls-4" d="M18.63,105.3l5.94-5.94A68,68,0,0,0,37.44,82.18c-5.12-5.34-8.3-10.35-9.65-15.27-1.52-5.61.13-10.87,4.9-15.63L36,48,23,35,10.13,47.82A33.82,33.82,0,0,0,0,72.21c-.07,9.54,4.5,19,13.58,28.06Z"/><path class="cls-1" d="M165.13,183.7c-4.77,4.77-10,6.43-15.62,4.9-5.28-1.44-10.64-4.95-16.41-10.72l-13.59-13.59a73.41,73.41,0,0,0-16.38-12.75A51.9,51.9,0,0,0,89,146.05a27.54,27.54,0,0,0-11.22-.15,26,26,0,0,0-7.1,2.56l-6.39,3.61,3.61-6.4a26.41,26.41,0,0,0,2.56-7.11,27.85,27.85,0,0,0-.15-11.21,52.19,52.19,0,0,0-5.5-14.11c-.23-.45-.5-.9-.76-1.34A93.4,93.4,0,0,1,55,122.37L42.35,135a45.66,45.66,0,0,1,2.18,6.1c2.34,8.61,1.34,15.66-3,21l12.75,12.76a19.29,19.29,0,0,1,12.52-4.23,31.89,31.89,0,0,1,8.47,1.24c9,2.46,18.14,8.21,27,17.07l13.86,13.82c9,9,18.38,13.59,27.84,13.59h.22a33.79,33.79,0,0,0,24.39-10.14l12.86-12.85-13-13Z"/><path class="cls-5" d="M165.13,183.7c-4.77,4.77-10,6.43-15.62,4.9-5.28-1.44-10.64-4.95-16.41-10.72l-13.59-13.59a73.41,73.41,0,0,0-16.38-12.75A51.9,51.9,0,0,0,89,146.05a27.54,27.54,0,0,0-11.22-.15,26,26,0,0,0-7.1,2.56l-6.39,3.61,3.61-6.4a26.41,26.41,0,0,0,2.56-7.11,27.85,27.85,0,0,0-.15-11.21,52.19,52.19,0,0,0-5.5-14.11c-.23-.45-.5-.9-.76-1.34A93.4,93.4,0,0,1,55,122.37L42.35,135a45.66,45.66,0,0,1,2.18,6.1c2.34,8.61,1.34,15.66-3,21l12.75,12.76a19.29,19.29,0,0,1,12.52-4.23,31.89,31.89,0,0,1,8.47,1.24c9,2.46,18.14,8.21,27,17.07l13.86,13.82c9,9,18.38,13.59,27.84,13.59h.22a33.79,33.79,0,0,0,24.39-10.14l12.86-12.85-13-13Z"/><path class="cls-1" d="M117,24.55a68.27,68.27,0,0,0,17.18,12.87c5.34-5.12,10.35-8.3,15.28-9.65,5.6-1.51,10.86.13,15.63,4.9L168.43,36l13-13L168.57,10.14A33.79,33.79,0,0,0,144.18,0H144c-9.46,0-18.83,4.57-27.84,13.58l-5,5Z"/><path class="cls-6" d="M117,24.55a68.27,68.27,0,0,0,17.18,12.87c5.34-5.12,10.35-8.3,15.28-9.65,5.6-1.51,10.86.13,15.63,4.9L168.43,36l13-13L168.57,10.14A33.79,33.79,0,0,0,144.18,0H144c-9.46,0-18.83,4.57-27.84,13.58l-5,5Z"/><path class="cls-1" d="M94,55,81.38,42.33a45.66,45.66,0,0,1-6.1,2.18c-8.61,2.35-15.66,1.34-21-3L41.53,54.27c4.33,5.32,5.33,12.37,3,21-2.47,9-8.21,18.14-17.07,27L13.61,116.12C4.53,125.2,0,134.65,0,144.19a33.84,33.84,0,0,0,10.1,24.37L23,181.41l13-13-3.32-3.32c-4.77-4.77-6.42-10-4.9-15.62,1.45-5.27,4.95-10.64,10.72-16.41l13.64-13.58a72.84,72.84,0,0,0,12.75-16.33A52.12,52.12,0,0,0,70.38,89a27.72,27.72,0,0,0,.14-11.22A26,26,0,0,0,68,70.71l-3.61-6.39,6.39,3.6a26.6,26.6,0,0,0,7.12,2.56,27.44,27.44,0,0,0,11.2-.15,51.52,51.52,0,0,0,14.06-5.49c.44-.24.89-.51,1.34-.77A91.33,91.33,0,0,1,94,55Z"/><path class="cls-7" d="M94,55,81.38,42.33a45.66,45.66,0,0,1-6.1,2.18c-8.61,2.35-15.66,1.34-21-3L41.53,54.27c4.33,5.32,5.33,12.37,3,21-2.47,9-8.21,18.14-17.07,27L13.61,116.12C4.53,125.2,0,134.65,0,144.19a33.84,33.84,0,0,0,10.1,24.37L23,181.41l13-13-3.32-3.32c-4.77-4.77-6.42-10-4.9-15.62,1.45-5.27,4.95-10.64,10.72-16.41l13.64-13.58a72.84,72.84,0,0,0,12.75-16.33A52.12,52.12,0,0,0,70.38,89a27.72,27.72,0,0,0,.14-11.22A26,26,0,0,0,68,70.71l-3.61-6.39,6.39,3.6a26.6,26.6,0,0,0,7.12,2.56,27.44,27.44,0,0,0,11.2-.15,51.52,51.52,0,0,0,14.06-5.49c.44-.24.89-.51,1.34-.77A91.33,91.33,0,0,1,94,55Z"/><path class="cls-1" d="M152.13,64.31l-3.61,6.4A26.05,26.05,0,0,0,146,77.82,27.49,27.49,0,0,0,146.12,89a51.84,51.84,0,0,0,5.49,14.11c.24.44.5.89.76,1.34A92.63,92.63,0,0,1,161.47,94l12.65-12.64a43.84,43.84,0,0,1-2.18-6.1c-2.35-8.61-1.34-15.66,3-21L162.13,41.52c-5.32,4.33-12.37,5.33-21,3-9.06-2.47-18.14-8.21-27-17.07L100.28,13.6C91.28,4.6,81.9,0,72.44,0h-.22A33.79,33.79,0,0,0,47.83,10.16L35,23,48,36l3.31-3.32c4.78-4.77,10-6.42,15.63-4.9,5.27,1.45,10.64,5,16.4,10.72L96.9,52.1a72.67,72.67,0,0,0,16.34,12.75,51.61,51.61,0,0,0,14.12,5.5,27.72,27.72,0,0,0,11.22.14,26,26,0,0,0,7.1-2.55Z"/><path class="cls-8" d="M152.13,64.31l-3.61,6.4A26.05,26.05,0,0,0,146,77.82,27.49,27.49,0,0,0,146.12,89a51.84,51.84,0,0,0,5.49,14.11c.24.44.5.89.76,1.34A92.63,92.63,0,0,1,161.47,94l12.65-12.64a43.84,43.84,0,0,1-2.18-6.1c-2.35-8.61-1.34-15.66,3-21L162.13,41.52c-5.32,4.33-12.37,5.33-21,3-9.06-2.47-18.14-8.21-27-17.07L100.28,13.6C91.28,4.6,81.9,0,72.44,0h-.22A33.79,33.79,0,0,0,47.83,10.16L35,23,48,36l3.31-3.32c4.78-4.77,10-6.42,15.63-4.9,5.27,1.45,10.64,5,16.4,10.72L96.9,52.1a72.67,72.67,0,0,0,16.34,12.75,51.61,51.61,0,0,0,14.12,5.5,27.72,27.72,0,0,0,11.22.14,26,26,0,0,0,7.1-2.55Z"/><path class="cls-1" d="M197.78,111.08,191.84,117A68,68,0,0,0,179,134.19c5.11,5.35,8.29,10.36,9.64,15.28,1.52,5.6-.13,10.86-4.9,15.63l-3.32,3.32,13,13,12.85-12.85a33.84,33.84,0,0,0,10.13-24.4c.08-9.53-4.5-19-13.58-28.06Z"/><path class="cls-9" d="M197.78,111.08,191.84,117A68,68,0,0,0,179,134.19c5.11,5.35,8.29,10.36,9.64,15.28,1.52,5.6-.13,10.86-4.9,15.63l-3.32,3.32,13,13,12.85-12.85a33.84,33.84,0,0,0,10.13-24.4c.08-9.53-4.5-19-13.58-28.06Z"/><path class="cls-1" d="M118.39,116.18a9.24,9.24,0,1,1,0-13.07h0l2.9,2.89L135.2,92.09l-2.89-2.89a28.92,28.92,0,1,0,0,40.9h0l2.89-2.89-13.91-13.91Z"/></g></g></g></svg>